<?xml version="1.0" standalone="no"?><!DOCTYPE svg PUBLIC "-//W3C//DTD SVG 1.1//EN" "http://www.w3.org/Graphics/SVG/1.1/DTD/svg11.dtd"><svg t="1671680054871" class="icon" viewBox="0 0 1024 1024" version="1.1" xmlns="http://www.w3.org/2000/svg" p-id="4212" xmlns:xlink="http://www.w3.org/1999/xlink" width="200" height="200"><path d="M900.096 763.73333333H122.88c-16.384 0-29.696-13.312-29.696-29.696V192.85333333c0-16.384 13.312-29.696 29.696-29.696h776.704c16.384 0 29.696 13.312 29.696 29.696v540.672c0.512 16.384-12.8 30.208-29.184 30.208zM156.16 700.24533333h709.632V226.13333333H156.16v474.112z" fill="#2C2C2C" p-id="4213"></path><path d="M569.344 951.12533333c-16.384 0-29.696-13.312-29.696-29.696v-172.032c0-16.384 13.312-29.696 29.696-29.696 16.384 0 29.696 13.312 29.696 29.696v172.032c0 16.384-13.824 29.696-29.696 29.696z m-113.664 0c-16.384 0-29.696-13.312-29.696-29.696v-172.032c0-16.384 13.312-29.696 29.696-29.696 16.384 0 29.696 13.312 29.696 29.696v172.032c0 16.384-13.824 29.696-29.696 29.696z" fill="#2C2C2C" p-id="4214"></path><path d="M740.352 951.12533333H284.16c-16.384 0-29.696-13.312-29.696-29.696s13.312-29.696 29.696-29.696h456.192c16.384 0 29.696 13.312 29.696 29.696s-13.312 29.696-29.696 29.696z m-408.576-352.768c-7.68 0-15.36-3.072-20.992-8.704L204.8 483.66933333c-11.776-11.776-11.776-30.208 0-41.984l106.496-106.496c11.776-11.776 30.208-11.776 41.984 0s11.776 30.208 0 41.984L267.776 462.67733333l84.992 84.992c11.776 11.776 11.776 30.208 0 41.984-5.632 6.144-13.312 8.704-20.992 8.704z m360.448 0c-7.68 0-15.36-3.072-20.992-8.704-11.776-11.776-11.776-30.208 0-41.984l84.992-84.992-84.992-84.992c-11.776-11.776-11.776-30.208 0-41.984 11.776-11.776 30.208-11.776 41.984 0l106.496 106.496c5.632 5.632 8.704 13.312 8.704 20.992 0 8.192-3.072 15.872-8.704 20.992l-105.984 105.984c-6.656 5.632-14.336 8.192-21.504 8.192z m-253.44 24.064c-5.12 0-9.728-1.024-14.336-4.096-13.824-8.192-19.456-26.112-11.264-40.96L562.688 315.73333333c8.192-13.824 26.112-19.456 40.96-11.264 13.824 8.192 19.456 26.112 11.264 40.96L464.896 607.57333333c-6.656 9.728-16.384 14.848-26.112 14.848z" fill="#2C2C2C" p-id="4215"></path></svg>