<svg class="icon" style="width: 1em;height: 1em;vertical-align: middle;fill: currentColor;overflow: hidden;" viewBox="0 0 1024 1024" version="1.1" xmlns="http://www.w3.org/2000/svg"><path d="M459.704448 833.996598" fill="#DA2017" /><path d="M947.859367 456.556247 589.952908 156.258856c-21.905916-18.380626-49.721425-28.515451-78.323856-28.52466l-0.044002 0c-28.585035 0-56.395428 10.110265-78.305437 28.467355l-358.517373 300.340369c-12.852726 10.767228-14.544251 29.912263-3.777023 42.764989 6.007831 7.16519 14.616906 10.859325 23.288402 10.859325 6.875594 0 13.793144-2.322905 19.47761-7.082302l18.520819-15.519462 0 325.160661c0 21.898753 8.527211 42.488697 24.01188 57.973366 15.484669 15.482623 36.071543 24.010857 57.974389 24.010857l184.665837 0 0-0.019443c66.174142 0 60.780295-60.693314 60.780295-60.693314L459.704448 629.535927c0-4.14746 1.616824-8.048303 4.552689-10.983145 2.930749-2.934842 6.833639-4.547573 10.985192-4.547573l72.124667 0c4.15053 0 8.04728 1.612731 10.984169 4.547573 2.934842 2.934842 4.551666 6.836709 4.551666 10.983145l0 204.460672-0.010233 0c0 0-5.393847 60.693314 60.780295 60.693314l0 0.019443 184.678116 0c21.895683 0 42.484603-8.528234 57.969273-24.010857 15.488763-15.485693 24.015973-36.074613 24.015973-57.973366L890.336256 487.539912l18.501376 15.527648c12.844539 10.772344 31.993668 9.101285 42.770106-3.746324C962.379059 486.47772 960.702883 467.333708 947.859367 456.556247zM829.619406 812.724109c0 5.681396-2.210341 11.026124-6.226818 15.043624-4.0175 4.0175-9.357112 6.228865-15.040555 6.228865L623.614565 833.996598 623.614565 629.535927c0-20.364817-7.931646-39.513946-22.330588-53.91391-14.400988-14.402011-33.55114-22.334681-53.915957-22.334681l-72.124667 0c-20.369933 0-39.521109 7.93267-53.918004 22.334681-14.397918 14.398942-22.330588 33.54807-22.330588 53.91391l0 204.460672L214.257294 833.996598c-5.683443 0-11.023054-2.211365-15.040555-6.228865-4.022617-4.0175-6.232958-9.362228-6.232958-15.040555l0-376.024096 279.278681-233.966683c11.003612-9.216919 24.966625-14.292518 39.321564-14.292518l0.020466 0c14.359033 0.005117 28.328185 5.094018 39.326681 14.32117l278.688233 233.836723L829.619406 812.724109z" fill="#272636" /></svg>