<svg class="icon" style="width: 1em;height: 1em;vertical-align: middle;fill: currentColor;overflow: hidden;" viewBox="0 0 1024 1024" version="1.1" xmlns="http://www.w3.org/2000/svg"><path d="M0 0h1023.999488v1023.999488H0z" fill="#333333" opacity=".01" /><path d="M51.199974 460.79977a51.199974 51.199974 0 0 1 51.199975 51.199974 409.599795 409.599795 0 0 0 750.233225 227.532686 51.199974 51.199974 0 0 1 85.094357 56.985572 514.252543 514.252543 0 0 1-229.734285 188.620705A510.566145 510.566145 0 0 1 511.999744 1023.999488a511.231744 511.231744 0 0 1-409.599795-204.799898v102.399949a51.199974 51.199974 0 0 1-102.041549 5.990397L0 921.599539v-409.599795a51.199974 51.199974 0 0 1 51.199974-51.199974z m460.79977-460.79977a511.231744 511.231744 0 0 1 409.599795 204.799898V102.399949a51.199974 51.199974 0 0 1 102.041549-5.990397L1023.999488 102.399949v409.599795a51.199974 51.199974 0 0 1-45.209577 50.841575L972.799514 563.199718a51.199974 51.199974 0 0 1-51.199975-51.199974A409.599795 409.599795 0 0 0 171.366314 284.467058a51.199974 51.199974 0 1 1-85.094357-56.985572A514.252543 514.252543 0 0 1 316.006242 38.911981 510.566145 510.566145 0 0 1 511.999744 0z" fill="#333333" /></svg>