<?xml version="1.0" standalone="no"?><!DOCTYPE svg PUBLIC "-//W3C//DTD SVG 1.1//EN" "http://www.w3.org/Graphics/SVG/1.1/DTD/svg11.dtd"><svg t="1671672977090" class="icon" viewBox="0 0 1024 1024" version="1.1" xmlns="http://www.w3.org/2000/svg" p-id="1522" xmlns:xlink="http://www.w3.org/1999/xlink" width="200" height="200"><path d="M222.513041 919.113421C235.713401 735.740981 186.80044 573.038873 75.774158 431.109423c-14.837614-18.930748-5.832717-47.07105 16.884181-52.903767C262.216448 334.818427 393.913061 235.662236 487.748176 80.839412c12.58639-20.772659 41.033676-20.465674 53.313081 0.409313 91.68622 156.35775 221.950235 257.560508 390.792046 303.710603 22.61457 6.139702 31.210153 34.484661 16.065554 53.108424-113.072849 140.189867-164.237034 302.073349-153.697212 485.650445 1.432597 24.45648-21.693614 41.749975-43.387229 32.438093-161.269511-69.68562-323.152993-71.015889-485.34346-3.888478C243.695013 961.170381 220.773459 943.569901 222.513041 919.113421z" p-id="1523"></path></svg>